<mxfile host="app.diagrams.net" modified="2023-08-18T19:50:12.275Z" agent="Mozilla/5.0 (Windows NT 10.0; Win64; x64) AppleWebKit/537.36 (KHTML, like Gecko) Chrome/115.0.0.0 Safari/537.36" version="21.6.8" etag="17BXn5WFn9FsN71a43xH" type="github">
  <diagram name="Page-1" id="8B2frxRIkQLh5lgsOGgM">
    <mxGraphModel>
      <root>
        <mxCell id="0" />
        <mxCell id="1" parent="0" />
      </root>
    </mxGraphModel>
  </diagram>
</mxfile>
